<svg data-name="001-paint" xmlns="http://www.w3.org/2000/svg" width="23.731" height="23.73" viewBox="0 0 23.731 23.73">
    <defs>
        <linearGradient id="nnae26lt9a" x1=".5" x2=".5" y2="1" gradientUnits="objectBoundingBox">
            <stop offset="0" stop-color="#ed8770"/>
            <stop offset="1" stop-color="#d9519d"/>
        </linearGradient>
    </defs>
    <g data-name="그룹 2178">
        <g data-name="그룹 2177">
            <path data-name="패스 68457" d="M90.773 240.908a.7.7 0 1 0 .7.7.7.7 0 0 0-.7-.7z" transform="translate(-85.903 -229.742)" style="fill:url(#nnae26lt9a)"/>
        </g>
    </g>
    <g data-name="그룹 2180">
        <g data-name="그룹 2179">
            <path data-name="패스 68458" d="M209.5 214.509a1.424 1.424 0 0 0-1.967 0 1.364 1.364 0 0 0-.35.585 3.333 3.333 0 0 1-1.521 1.906 3.273 3.273 0 0 0 3.836-.525 1.39 1.39 0 0 0 .002-1.966z" transform="translate(-196.13 -204.191)" style="fill:url(#nnae26lt9a)"/>
        </g>
    </g>
    <g data-name="그룹 2182">
        <g data-name="그룹 2181">
            <path data-name="패스 68459" d="M120.782 360.946a.7.7 0 1 0 .7.7.7.7 0 0 0-.7-.7z" transform="translate(-114.521 -344.217)" style="fill:url(#nnae26lt9a)"/>
        </g>
    </g>
    <g data-name="그룹 2184">
        <g data-name="그룹 2183">
            <path data-name="패스 68460" d="M150.792 150.88a.7.7 0 1 0 .7.7.7.7 0 0 0-.7-.7z" transform="translate(-143.14 -143.887)" style="fill:url(#nnae26lt9a)"/>
        </g>
    </g>
    <g data-name="그룹 2186">
        <g data-name="그룹 2185">
            <path data-name="패스 68461" d="M20.618 69.827a10.073 10.073 0 0 0-1.134-2.914c-1.317 1.151-3.058 2.445-4.4 2.612a2.74 2.74 0 0 1-.731 2.616 4.589 4.589 0 0 1-6.491 0c-.277-.278-.5-.481-.366-.9a.7.7 0 0 1 .551-.472 2.053 2.053 0 0 0 1.673-1.384 2.777 2.777 0 0 1 .7-1.175 2.826 2.826 0 0 1 2.613-.707c.154-1.342 1.494-3.128 2.619-4.422a10.441 10.441 0 1 0-7.515 19.227 10.853 10.853 0 0 0 2.3.249c1.784 0 3.338-.338 3.93-2.139a3.06 3.06 0 0 0-.74-3.137 1.389 1.389 0 0 1 0-1.967 1.424 1.424 0 0 1 1.967 0 3.059 3.059 0 0 0 3.137.74 2.961 2.961 0 0 0 2.022-2.376 10.623 10.623 0 0 0-.135-3.851zM7.652 64.475a2.086 2.086 0 1 1-2.086 2.086 2.089 2.089 0 0 1 2.086-2.086zm-4.868 6.259A2.086 2.086 0 1 1 4.87 72.82a2.089 2.089 0 0 1-2.086-2.086zm3.477 7.65A2.086 2.086 0 1 1 8.348 76.3a2.089 2.089 0 0 1-2.087 2.084z" transform="translate(0 -58.826)" style="fill:url(#nnae26lt9a)"/>
        </g>
    </g>
    <g data-name="그룹 2188">
        <g data-name="그룹 2187">
            <path data-name="패스 68462" d="M422.318.083c-.022-.022-.075-.075-.247-.075-.864 0-2.44 1.049-4.015 2.434l1.873 1.873c1.925-2.19 2.781-3.84 2.389-4.232z" transform="translate(-398.68 -.008)" style="fill:url(#nnae26lt9a)"/>
        </g>
    </g>
    <g data-name="그룹 2190">
        <g data-name="그룹 2189">
            <path data-name="패스 68463" d="M314.2 72.9c-.142.137-.287.273-.425.411-2.062 2.063-3.556 4.2-3.551 5.094a.425.425 0 0 0 .609.406c1.134-.19 3.3-1.92 4.909-3.534.146-.145.271-.284.409-.427z" transform="translate(-295.845 -69.519)" style="fill:url(#nnae26lt9a)"/>
        </g>
    </g>
</svg>
