<svg data-name="002-scissors" xmlns="http://www.w3.org/2000/svg" width="20.257" height="18" viewBox="0 0 20.257 18">
    <defs>
        <linearGradient id="fx35yedxna" x1=".5" x2=".5" y2="1" gradientUnits="objectBoundingBox">
            <stop offset="0" stop-color="#ed8770"/>
            <stop offset="1" stop-color="#d9519d"/>
        </linearGradient>
    </defs>
    <g data-name="그룹 2191">
        <path data-name="패스 68464" d="M20.257 31.636a2.983 2.983 0 0 0-4.134-.753L9.248 35.7l-2.5-1.751a3.615 3.615 0 1 0-1.521 1.43l3.062 2.141-3.062 2.144a3.618 3.618 0 1 0 1.521 1.43l2.5-1.751 6.874 4.813a2.983 2.983 0 0 0 4.134-.753l-8.4-5.884zM3.625 34.02A1.875 1.875 0 1 1 5.5 32.145a1.875 1.875 0 0 1-1.875 1.875zm0 10.75A1.875 1.875 0 1 1 5.5 42.9a1.875 1.875 0 0 1-1.875 1.87z" transform="translate(0 -28.52)" style="fill:url(#fx35yedxna)"/>
    </g>
</svg>
