<svg data-name="13-car" xmlns="http://www.w3.org/2000/svg" width="20.257" height="9.646" viewBox="0 0 20.257 9.646">
    <defs>
        <linearGradient id="b3lsennlga" x1=".5" x2=".5" y2="1" gradientUnits="objectBoundingBox">
            <stop offset="0" stop-color="#ed8770"/>
            <stop offset="1" stop-color="#d9519d"/>
        </linearGradient>
    </defs>
    <path data-name="패스 68483" d="M70.09 236a2.09 2.09 0 1 0 2.09 2.09 2.09 2.09 0 0 0-2.09-2.09zm0 3.055a.965.965 0 1 1 .965-.965.965.965 0 0 1-.965.965z" transform="translate(-65.428 -230.534)" style="fill:url(#b3lsennlga)"/>
    <path data-name="패스 68484" d="M358.09 236a2.09 2.09 0 1 0 2.09 2.09 2.09 2.09 0 0 0-2.09-2.09zm0 3.055a.965.965 0 1 1 .965-.965.965.965 0 0 1-.965.965z" transform="translate(-341.852 -230.534)" style="fill:url(#b3lsennlga)"/>
    <path data-name="패스 68485" d="m23.027 103.739-3.754-.685-3.2-2.652a1.773 1.773 0 0 0-1.124-.4h-4.704a1.76 1.76 0 0 0-1.381.664l-2.041 2.391H5.447A1.449 1.449 0 0 0 4 104.5v1.768a1.77 1.77 0 0 0 1.768 1.768h.368a2.572 2.572 0 1 1 5.053 0h6.523a2.572 2.572 0 1 1 5.053 0h.046a1.449 1.449 0 0 0 1.447-1.447v-1.419a1.439 1.439 0 0 0-1.23-1.431zm-11.953-1.167a.482.482 0 0 1-.482.482H8.471a.241.241 0 0 1-.183-.4l1.4-1.644a.482.482 0 0 1 .367-.169h.534a.482.482 0 0 1 .482.482zm2.412 2.251h-.643a.482.482 0 0 1 0-.965h.643a.482.482 0 0 1 0 .965zm3.8-1.757-4.6-.011a.482.482 0 0 1-.481-.482v-1.247a.482.482 0 0 1 .482-.482H15a.482.482 0 0 1 .3.1l2.139 1.688a.241.241 0 0 1-.15.431z" transform="translate(-4 -100)" style="fill:url(#b3lsennlga)"/>
</svg>
