<svg xmlns="http://www.w3.org/2000/svg" xmlns:xlink="http://www.w3.org/1999/xlink" width="22" height="22" viewBox="0 0 22 22">
  <defs>
    <linearGradient id="linear-gradient" x1="0.5" x2="0.5" y2="1" gradientUnits="objectBoundingBox">
      <stop offset="0" stop-color="#ed8770"/>
      <stop offset="1" stop-color="#d9519d"/>
    </linearGradient>
  </defs>
  <g id="그룹_2050" data-name="그룹 2050" transform="translate(-20 -689)">
    <g id="그룹_2048" data-name="그룹 2048" transform="translate(20 689)">
      <path id="제외_1" data-name="제외 1" d="M11,22A11,11,0,0,1,3.222,3.222,11,11,0,1,1,18.778,18.778,10.929,10.929,0,0,1,11,22Zm.027-20.87a9.9,9.9,0,1,0,9.9,9.9A9.907,9.907,0,0,0,11.027,1.13Z" transform="translate(0 0)" fill="url(#linear-gradient)"/>
    </g>
    <g id="그룹_2049" data-name="그룹 2049" transform="translate(27.904 695.269)">
      <path id="다각형_4" data-name="다각형 4" d="M4.152,1.357a1,1,0,0,1,1.7,0l3.2,5.113A1,1,0,0,1,8.2,8H1.8A1,1,0,0,1,.956,6.47Z" transform="translate(8.096 -0.269) rotate(90)" fill="url(#linear-gradient)"/>
    </g>
  </g>
</svg>
