<svg id="Sc2prs.tif_1_" xmlns="http://www.w3.org/2000/svg" width="14.907" height="11.222" viewBox="0 0 14.907 11.222">
  <g id="그룹_4" data-name="그룹 4" transform="translate(0 0)">
    <path id="패스_9" data-name="패스 9" d="M0,3.321a1.735,1.735,0,0,1,.352-.529A9.994,9.994,0,0,1,6.132.043a10.11,10.11,0,0,1,7.753,2.185,8.075,8.075,0,0,1,.811.74,1.867,1.867,0,0,1,.211.352V3.6c0,.035-.035.035-.035.07a.707.707,0,0,1-1.163.282c-.423-.352-.846-.74-1.3-1.057a8.5,8.5,0,0,0-3.559-1.41A8.771,8.771,0,0,0,1.2,3.955.684.684,0,0,1,.035,3.673C.035,3.638,0,3.638,0,3.6,0,3.532,0,3.426,0,3.321Z" transform="translate(0 0.042)" fill="#fff"/>
    <path id="패스_10" data-name="패스 10" d="M11.2,7.9a7.231,7.231,0,0,1,5.075,2.185.682.682,0,0,1,.035.987.654.654,0,0,1-.987,0,5.764,5.764,0,0,0-3.207-1.656,6.01,6.01,0,0,0-5.251,1.515,2.12,2.12,0,0,1-.458.317.737.737,0,0,1-.811-.282.7.7,0,0,1,.106-.881A7.468,7.468,0,0,1,7.5,8.746,8.408,8.408,0,0,1,11.2,7.9Z" transform="translate(-3.554 -5.101)" fill="#fff"/>
    <path id="패스_11" data-name="패스 11" d="M14.684,15.9a4.8,4.8,0,0,1,3.383,1.339.657.657,0,0,1,.211.7.688.688,0,0,1-1.163.317,3.366,3.366,0,0,0-1.586-.881,3.133,3.133,0,0,0-3,.846.734.734,0,0,1-.74.211.693.693,0,0,1-.282-1.163,4.422,4.422,0,0,1,2.537-1.3A2.3,2.3,0,0,1,14.684,15.9Z" transform="translate(-7.318 -10.282)" fill="#fff"/>
    <path id="패스_12" data-name="패스 12" d="M18.672,23.8a1.41,1.41,0,1,1,0,2.819,1.41,1.41,0,0,1,0-2.819Z" transform="translate(-11.201 -15.398)" fill="#fff"/>
  </g>
</svg>
