<svg id="그룹_5" data-name="그룹 5" xmlns="http://www.w3.org/2000/svg" width="13.537" height="11.233" viewBox="0 0 13.537 11.233">
  <path id="패스_13" data-name="패스 13" d="M.886,17.4A.877.877,0,0,0,0,18.286v3.3a.877.877,0,0,0,.886.886.877.877,0,0,0,.886-.886v-3.3A.877.877,0,0,0,.886,17.4Z" transform="translate(0 -11.234)" fill="#fff"/>
  <path id="패스_14" data-name="패스 14" d="M11.986,11.9a.877.877,0,0,0-.886.886V18.03a.886.886,0,1,0,1.772,0V12.786A.877.877,0,0,0,11.986,11.9Z" transform="translate(-7.167 -7.683)" fill="#fff"/>
  <path id="패스_15" data-name="패스 15" d="M22.986,6a.877.877,0,0,0-.886.886v7.335a.886.886,0,1,0,1.772,0V6.886A.877.877,0,0,0,22.986,6Z" transform="translate(-14.269 -3.874)" fill="#fff"/>
  <path id="패스_16" data-name="패스 16" d="M34.086,0A.877.877,0,0,0,33.2.886v9.462a.886.886,0,0,0,1.772,0V.886A.9.9,0,0,0,34.086,0Z" transform="translate(-21.435)" fill="#fff"/>
</svg>
