<svg id="그룹_6" data-name="그룹 6" xmlns="http://www.w3.org/2000/svg" width="24.388" height="11.407" viewBox="0 0 24.388 11.407">
  <path id="패스_17" data-name="패스 17" d="M22,5.1H6.38A1.159,1.159,0,0,0,5.2,6.28V11.2a1.159,1.159,0,0,0,1.18,1.18H22a1.159,1.159,0,0,0,1.18-1.18V6.28A1.159,1.159,0,0,0,22,5.1Z" transform="translate(-3.155 -3.094)" fill="#fff"/>
  <path id="패스_18" data-name="패스 18" d="M19.511,0H2.321A2.351,2.351,0,0,0,0,2.321V9.047a2.359,2.359,0,0,0,2.321,2.36H19.471a2.325,2.325,0,0,0,2.321-2.321V2.321A2.292,2.292,0,0,0,19.511,0Zm1.337,9.087a1.326,1.326,0,0,1-1.337,1.337H2.321A1.326,1.326,0,0,1,.983,9.087V2.321A1.326,1.326,0,0,1,2.321.983H19.471a1.336,1.336,0,0,1,1.377,1.337Z" fill="#fff" opacity="0.383"/>
  <path id="패스_19" data-name="패스 19" d="M59.187,9.4H58.4v4.052h.826a.6.6,0,0,0,.59-.59V10.029A.621.621,0,0,0,59.187,9.4Z" transform="translate(-35.428 -5.702)" fill="#fff" opacity="0.379"/>
</svg>
